<svg xmlns="http://www.w3.org/2000/svg" version="1.0" preserveAspectRatio="xMidYMid meet" viewBox="219.5 212.67 582 602.93">

<g transform="translate(0.000000,1024.000000) scale(0.100000,-0.100000)" fill="#000000" stroke="#FFFFFF">
<path d="M3459 8099 c-216 -31 -416 -175 -513 -368 -87 -175 -81 -46 -81 -1771 l0 -1525 23 -80 c73 -253 261 -440 512 -512 62 -17 143 -18 1720 -18 l1655 0 80 23 c227 65 419 248 491 468 l29 89 0 1570 0 1570 -28 80 c-72 204 -223 363 -416 436 -130 49 -98 48 -1811 47 -883 0 -1630 -4 -1661 -9z m3383 -337 c86 -42 153 -109 192 -192 l31 -65 3 -1520 c2 -1380 1 -1524 -14 -1570 -36 -112 -112 -196 -223 -249 l-66 -31 -790 -3 c-438 -1 -785 1 -780 6 6 5 29 14 52 20 65 19 159 88 203 150 56 78 83 171 78 270 l-4 77 215 330 c277 427 255 388 248 438 -11 78 -96 122 -164 84 -21 -12 -316 -270 -518 -453 l-100 -91 -90 -5 c-120 -7 -188 -34 -266 -106 -71 -65 -113 -142 -129 -234 -30 -173 70 -359 236 -438 34 -17 69 -30 77 -30 9 0 19 -5 22 -10 5 -7 -243 -10 -782 -8 l-788 3 -67 32 c-81 38 -148 98 -188 167 -62 110 -60 39 -60 1626 0 891 4 1468 10 1504 25 152 123 265 275 318 47 16 153 17 1685 15 l1635 -2 67 -33z"/>
<path d="M6318 7013 l-308 -308 -153 153 c-190 190 -179 187 -300 63 -48 -49 -87 -97 -87 -107 0 -23 496 -520 529 -529 21 -6 69 38 437 407 325 325 414 419 414 438 0 18 -23 48 -83 108 -66 66 -88 82 -112 82 -26 0 -72 -42 -337 -307z"/>
<path d="M4860 6304 c-365 -48 -716 -207 -990 -447 -264 -232 -481 -589 -561 -923 -25 -108 -49 -274 -49 -351 l0 -63 145 0 c80 0 148 0 153 0 4 0 10 44 14 97 8 124 30 229 75 364 126 385 410 702 785 878 214 101 389 141 648 148 158 4 203 2 309 -16 229 -39 463 -136 651 -269 119 -84 276 -241 357 -355 157 -223 259 -501 279 -759 l7 -88 153 0 154 0 0 35 c0 126 -49 396 -97 530 -39 110 -125 281 -193 385 -354 538 -948 854 -1598 849 -75 -1 -184 -7 -242 -15z"/>
<path d="M2200 2655 l0 -555 115 0 115 0 0 185 0 185 134 0 c73 0 157 5 187 10 116 22 201 86 251 188 31 62 33 73 33 172 0 92 -3 112 -26 160 -37 79 -81 125 -152 160 -86 41 -158 50 -424 50 l-233 0 0 -555z m512 355 c44 -13 83 -56 99 -111 16 -51 -1 -129 -38 -177 -43 -56 -90 -72 -225 -72 l-118 0 0 185 0 185 123 0 c67 0 139 -5 159 -10z"/>
<path d="M4570 2657 l0 -556 243 4 c344 5 420 25 549 144 163 150 207 456 96 681 -39 81 -133 177 -208 213 -106 51 -156 59 -427 64 l-253 6 0 -556z m433 353 c147 -21 221 -80 259 -203 17 -58 20 -87 16 -185 -5 -139 -28 -203 -91 -257 -61 -52 -114 -67 -264 -72 l-132 -5 4 363 c2 200 4 365 4 367 2 6 143 1 204 -8z"/>
<path d="M7260 2655 l0 -555 105 0 104 0 3 278 3 279 27 35 c55 73 172 87 239 30 56 -46 59 -65 59 -357 l0 -265 105 0 105 0 0 283 c0 309 -6 356 -54 426 -76 109 -247 150 -385 91 -28 -13 -62 -36 -76 -51 -13 -16 -25 -29 -27 -29 -2 0 -2 88 0 195 l3 195 -105 0 -106 0 0 -555z"/>
<path d="M3465 2911 c-44 -20 -84 -59 -108 -106 l-16 -30 -1 68 0 67 -100 0 -100 0 0 -405 0 -405 105 0 105 0 0 233 c0 137 5 248 11 272 22 78 97 125 199 125 l45 0 0 100 0 100 -50 0 c-27 0 -68 -9 -90 -19z"/>
<path d="M3940 2915 c-74 -21 -127 -54 -181 -112 -135 -144 -129 -442 10 -596 79 -88 169 -121 309 -115 115 5 183 31 257 99 60 55 90 108 109 189 20 81 20 156 1 243 -27 128 -100 223 -213 275 -71 33 -206 40 -292 17z m196 -174 c83 -38 119 -117 112 -250 -5 -101 -28 -155 -85 -198 -32 -25 -45 -28 -107 -28 -90 0 -127 24 -164 104 -20 44 -26 72 -26 136 -1 44 5 97 12 118 40 111 156 164 258 118z"/>
<path d="M5852 2914 c-67 -18 -84 -27 -134 -72 -42 -38 -71 -87 -83 -139 l-7 -33 99 0 98 1 20 32 c27 42 59 57 128 57 63 0 107 -17 131 -52 17 -24 22 -108 7 -108 -50 0 -308 -34 -348 -45 -139 -41 -202 -186 -139 -322 43 -91 126 -135 256 -135 92 0 146 19 197 67 l42 41 3 -49 3 -48 103 -2 103 -2 -3 315 c-3 301 -4 317 -25 355 -38 72 -99 115 -198 141 -64 18 -185 17 -253 -2z m268 -506 c0 -64 -28 -110 -86 -138 -70 -34 -178 -19 -203 28 -14 26 -14 77 -1 102 21 39 88 56 228 59 l62 1 0 -52z"/>
<path d="M6663 2915 c-72 -20 -122 -47 -160 -87 -104 -108 -75 -280 57 -348 38 -19 87 -31 226 -56 118 -20 154 -41 154 -89 0 -70 -76 -107 -188 -91 -58 8 -88 28 -109 71 l-17 35 -103 0 -103 0 6 -27 c36 -153 163 -233 369 -234 162 -1 289 62 336 166 25 55 25 144 -1 195 -38 75 -107 110 -274 139 -130 23 -143 27 -173 54 -29 26 -29 68 0 102 18 21 34 28 82 32 79 7 129 -13 152 -61 l17 -36 92 0 c51 0 95 3 97 8 11 18 -26 103 -62 144 -59 67 -122 91 -246 95 -66 2 -118 -2 -152 -12z"/>
</g>
</svg>